<mxfile host="app.diagrams.net" modified="2024-04-18T16:48:56.349Z" agent="Mozilla/5.0 (Windows NT 10.0; Win64; x64) AppleWebKit/537.36 (KHTML, like Gecko) Chrome/123.0.0.0 Safari/537.36" etag="CbonMeiK13eI48SI0RuS" version="24.2.5" type="google">
  <diagram id="R2lEEEUBdFMjLlhIrx00" name="Page-1">
    <mxGraphModel grid="1" page="1" gridSize="10" guides="1" tooltips="1" connect="1" arrows="1" fold="1" pageScale="1" pageWidth="850" pageHeight="1100" math="0" shadow="0" extFonts="Permanent Marker^https://fonts.googleapis.com/css?family=Permanent+Marker">
      <root>
        <mxCell id="0" />
        <mxCell id="1" parent="0" />
        <mxCell id="AJlxaB4Acg89Z14qFCdw-67" value="" style="shape=rhombus;perimeter=rhombusPerimeter;whiteSpace=wrap;html=1;align=center;" vertex="1" parent="1">
          <mxGeometry x="1380" y="925" width="140" height="70" as="geometry" />
        </mxCell>
        <mxCell id="AJlxaB4Acg89Z14qFCdw-66" value="" style="shape=rhombus;perimeter=rhombusPerimeter;whiteSpace=wrap;html=1;align=center;" vertex="1" parent="1">
          <mxGeometry x="1027" y="200" width="150" height="80" as="geometry" />
        </mxCell>
        <mxCell id="AJlxaB4Acg89Z14qFCdw-65" value="" style="shape=rhombus;perimeter=rhombusPerimeter;whiteSpace=wrap;html=1;align=center;" vertex="1" parent="1">
          <mxGeometry x="390" y="225" width="160" height="80" as="geometry" />
        </mxCell>
        <mxCell id="AJlxaB4Acg89Z14qFCdw-64" value="" style="shape=rhombus;perimeter=rhombusPerimeter;whiteSpace=wrap;html=1;align=center;" vertex="1" parent="1">
          <mxGeometry x="582" y="855" width="135" height="70" as="geometry" />
        </mxCell>
        <mxCell id="AJlxaB4Acg89Z14qFCdw-63" value="" style="shape=rhombus;perimeter=rhombusPerimeter;whiteSpace=wrap;html=1;align=center;" vertex="1" parent="1">
          <mxGeometry x="85" y="500" width="160" height="90" as="geometry" />
        </mxCell>
        <mxCell id="AJlxaB4Acg89Z14qFCdw-62" value="" style="shape=rhombus;perimeter=rhombusPerimeter;whiteSpace=wrap;html=1;align=center;" vertex="1" parent="1">
          <mxGeometry x="415" y="790" width="140" height="80" as="geometry" />
        </mxCell>
        <mxCell id="AJlxaB4Acg89Z14qFCdw-61" value="" style="shape=rhombus;perimeter=rhombusPerimeter;whiteSpace=wrap;html=1;align=center;" vertex="1" parent="1">
          <mxGeometry x="610" y="660" width="140" height="70" as="geometry" />
        </mxCell>
        <mxCell id="AJlxaB4Acg89Z14qFCdw-60" value="" style="shape=rhombus;perimeter=rhombusPerimeter;whiteSpace=wrap;html=1;align=center;" vertex="1" parent="1">
          <mxGeometry x="642.5" y="370" width="135" height="70" as="geometry" />
        </mxCell>
        <mxCell id="W9PO5mg89UqJD7AjwrC5-7" style="edgeStyle=orthogonalEdgeStyle;rounded=0;orthogonalLoop=1;jettySize=auto;html=1;entryX=0;entryY=0.5;entryDx=0;entryDy=0;endArrow=none;endFill=0;exitX=1;exitY=0.5;exitDx=0;exitDy=0;" edge="1" parent="1" source="W9PO5mg89UqJD7AjwrC5-3" target="W9PO5mg89UqJD7AjwrC5-6">
          <mxGeometry relative="1" as="geometry" />
        </mxCell>
        <mxCell id="AJlxaB4Acg89Z14qFCdw-3" value="(1, n)" style="edgeLabel;html=1;align=center;verticalAlign=middle;resizable=0;points=[];" connectable="0" vertex="1" parent="W9PO5mg89UqJD7AjwrC5-7">
          <mxGeometry x="-0.6404" y="-2" relative="1" as="geometry">
            <mxPoint as="offset" />
          </mxGeometry>
        </mxCell>
        <mxCell id="W9PO5mg89UqJD7AjwrC5-2" value="Prodotto" style="swimlane;childLayout=stackLayout;horizontal=1;startSize=50;horizontalStack=0;rounded=1;fontSize=14;fontStyle=0;strokeWidth=2;resizeParent=0;resizeLast=1;shadow=0;dashed=0;align=center;arcSize=4;whiteSpace=wrap;html=1;" vertex="1" parent="1">
          <mxGeometry x="90" y="170" width="150" height="140" as="geometry" />
        </mxCell>
        <mxCell id="W9PO5mg89UqJD7AjwrC5-3" value="&lt;u&gt;+Codice_prodotto&lt;/u&gt;&lt;br&gt;+Nome&lt;br&gt;+ Descrizione&lt;div&gt;+ Categoria&lt;/div&gt;" style="align=left;strokeColor=none;fillColor=none;spacingLeft=4;fontSize=12;verticalAlign=top;resizable=0;rotatable=0;part=1;html=1;" vertex="1" parent="W9PO5mg89UqJD7AjwrC5-2">
          <mxGeometry y="50" width="150" height="90" as="geometry" />
        </mxCell>
        <mxCell id="W9PO5mg89UqJD7AjwrC5-4" value="Variante" style="swimlane;childLayout=stackLayout;horizontal=1;startSize=50;horizontalStack=0;rounded=1;fontSize=14;fontStyle=0;strokeWidth=2;resizeParent=0;resizeLast=1;shadow=0;dashed=0;align=center;arcSize=4;whiteSpace=wrap;html=1;" vertex="1" parent="1">
          <mxGeometry x="761.9200000000001" y="170" width="160" height="130" as="geometry" />
        </mxCell>
        <mxCell id="W9PO5mg89UqJD7AjwrC5-5" value="&lt;u&gt;+Colore&lt;/u&gt;&lt;br&gt;+ Url_immagine&lt;div&gt;+ Prezzo&lt;/div&gt;&lt;div&gt;+ Disponibilità&lt;/div&gt;" style="align=left;strokeColor=none;fillColor=none;spacingLeft=4;fontSize=12;verticalAlign=top;resizable=0;rotatable=0;part=1;html=1;" vertex="1" parent="W9PO5mg89UqJD7AjwrC5-4">
          <mxGeometry y="50" width="160" height="80" as="geometry" />
        </mxCell>
        <mxCell id="W9PO5mg89UqJD7AjwrC5-39" value="" style="whiteSpace=wrap;html=1;fontSize=14;fontStyle=0;startSize=50;rounded=1;strokeWidth=2;shadow=0;dashed=0;arcSize=4;" vertex="1" parent="W9PO5mg89UqJD7AjwrC5-4">
          <mxGeometry y="130" width="160" as="geometry" />
        </mxCell>
        <mxCell id="W9PO5mg89UqJD7AjwrC5-8" style="rounded=0;orthogonalLoop=1;jettySize=auto;html=1;endArrow=none;endFill=0;exitX=1;exitY=0.5;exitDx=0;exitDy=0;entryX=0;entryY=0.5;entryDx=0;entryDy=0;" edge="1" parent="1" source="W9PO5mg89UqJD7AjwrC5-6" target="W9PO5mg89UqJD7AjwrC5-5">
          <mxGeometry relative="1" as="geometry">
            <mxPoint x="706.9200000000001" y="240" as="sourcePoint" />
            <mxPoint x="690" y="280" as="targetPoint" />
          </mxGeometry>
        </mxCell>
        <mxCell id="AJlxaB4Acg89Z14qFCdw-4" value="(1, 1)" style="edgeLabel;html=1;align=center;verticalAlign=middle;resizable=0;points=[];" connectable="0" vertex="1" parent="W9PO5mg89UqJD7AjwrC5-8">
          <mxGeometry x="0.7074" y="-1" relative="1" as="geometry">
            <mxPoint as="offset" />
          </mxGeometry>
        </mxCell>
        <mxCell id="W9PO5mg89UqJD7AjwrC5-6" value="è diversificato&amp;nbsp;&lt;div&gt;in&lt;/div&gt;" style="shape=rhombus;perimeter=rhombusPerimeter;whiteSpace=wrap;html=1;align=center;" vertex="1" parent="1">
          <mxGeometry x="400" y="230" width="140" height="70" as="geometry" />
        </mxCell>
        <mxCell id="W9PO5mg89UqJD7AjwrC5-9" value="Carrello" style="swimlane;childLayout=stackLayout;horizontal=1;startSize=50;horizontalStack=0;rounded=1;fontSize=14;fontStyle=0;strokeWidth=2;resizeParent=0;resizeLast=1;shadow=0;dashed=0;align=center;arcSize=4;whiteSpace=wrap;html=1;" vertex="1" parent="1">
          <mxGeometry x="440" y="505" width="160" height="120" as="geometry" />
        </mxCell>
        <mxCell id="W9PO5mg89UqJD7AjwrC5-11" value="Recensione" style="swimlane;childLayout=stackLayout;horizontal=1;startSize=50;horizontalStack=0;rounded=1;fontSize=14;fontStyle=0;strokeWidth=2;resizeParent=0;resizeLast=1;shadow=0;dashed=0;align=center;arcSize=4;whiteSpace=wrap;html=1;" vertex="1" parent="1">
          <mxGeometry x="80" y="770" width="170" height="120" as="geometry" />
        </mxCell>
        <mxCell id="W9PO5mg89UqJD7AjwrC5-12" value="+ Stelle&lt;div&gt;+ Commento&lt;/div&gt;" style="align=left;strokeColor=none;fillColor=none;spacingLeft=4;fontSize=12;verticalAlign=top;resizable=0;rotatable=0;part=1;html=1;" vertex="1" parent="W9PO5mg89UqJD7AjwrC5-11">
          <mxGeometry y="50" width="170" height="70" as="geometry" />
        </mxCell>
        <mxCell id="W9PO5mg89UqJD7AjwrC5-25" style="edgeStyle=orthogonalEdgeStyle;rounded=0;orthogonalLoop=1;jettySize=auto;html=1;entryX=0.5;entryY=0;entryDx=0;entryDy=0;endArrow=none;endFill=0;" edge="1" parent="1" source="W9PO5mg89UqJD7AjwrC5-13" target="W9PO5mg89UqJD7AjwrC5-11">
          <mxGeometry relative="1" as="geometry" />
        </mxCell>
        <mxCell id="AJlxaB4Acg89Z14qFCdw-6" value="(1, 1)" style="edgeLabel;html=1;align=center;verticalAlign=middle;resizable=0;points=[];" connectable="0" vertex="1" parent="W9PO5mg89UqJD7AjwrC5-25">
          <mxGeometry x="0.6133" relative="1" as="geometry">
            <mxPoint as="offset" />
          </mxGeometry>
        </mxCell>
        <mxCell id="W9PO5mg89UqJD7AjwrC5-13" value="Valuta" style="shape=rhombus;perimeter=rhombusPerimeter;whiteSpace=wrap;html=1;align=center;" vertex="1" parent="1">
          <mxGeometry x="100" y="510" width="130" height="70" as="geometry" />
        </mxCell>
        <mxCell id="W9PO5mg89UqJD7AjwrC5-14" style="edgeStyle=orthogonalEdgeStyle;rounded=0;orthogonalLoop=1;jettySize=auto;html=1;entryX=0.5;entryY=1;entryDx=0;entryDy=0;entryPerimeter=0;endArrow=none;endFill=0;" edge="1" parent="1" source="W9PO5mg89UqJD7AjwrC5-13" target="W9PO5mg89UqJD7AjwrC5-3">
          <mxGeometry relative="1" as="geometry" />
        </mxCell>
        <mxCell id="AJlxaB4Acg89Z14qFCdw-5" value="(0, n)" style="edgeLabel;html=1;align=center;verticalAlign=middle;resizable=0;points=[];" connectable="0" vertex="1" parent="W9PO5mg89UqJD7AjwrC5-14">
          <mxGeometry x="0.8033" y="1" relative="1" as="geometry">
            <mxPoint as="offset" />
          </mxGeometry>
        </mxCell>
        <mxCell id="W9PO5mg89UqJD7AjwrC5-15" value="Ordine&lt;div&gt;&lt;br&gt;&lt;/div&gt;" style="swimlane;childLayout=stackLayout;horizontal=1;startSize=50;horizontalStack=0;rounded=1;fontSize=14;fontStyle=0;strokeWidth=2;resizeParent=0;resizeLast=1;shadow=0;dashed=0;align=center;arcSize=4;whiteSpace=wrap;html=1;" vertex="1" parent="1">
          <mxGeometry x="761.9200000000001" y="490" width="160" height="120" as="geometry" />
        </mxCell>
        <mxCell id="W9PO5mg89UqJD7AjwrC5-16" value="&lt;u&gt;+Codice_ordine&lt;/u&gt;&lt;div&gt;+ Stato (ENUM)&lt;/div&gt;&lt;div&gt;+ Data&lt;/div&gt;" style="align=left;strokeColor=none;fillColor=none;spacingLeft=4;fontSize=12;verticalAlign=top;resizable=0;rotatable=0;part=1;html=1;" vertex="1" parent="W9PO5mg89UqJD7AjwrC5-15">
          <mxGeometry y="50" width="160" height="70" as="geometry" />
        </mxCell>
        <mxCell id="W9PO5mg89UqJD7AjwrC5-18" style="rounded=0;orthogonalLoop=1;jettySize=auto;html=1;entryX=0.5;entryY=1;entryDx=0;entryDy=0;endArrow=none;endFill=0;" edge="1" parent="1" source="W9PO5mg89UqJD7AjwrC5-17" target="W9PO5mg89UqJD7AjwrC5-5">
          <mxGeometry relative="1" as="geometry" />
        </mxCell>
        <mxCell id="AJlxaB4Acg89Z14qFCdw-18" value="(1, n)" style="edgeLabel;html=1;align=center;verticalAlign=middle;resizable=0;points=[];" connectable="0" vertex="1" parent="W9PO5mg89UqJD7AjwrC5-18">
          <mxGeometry x="0.7429" y="1" relative="1" as="geometry">
            <mxPoint as="offset" />
          </mxGeometry>
        </mxCell>
        <mxCell id="W9PO5mg89UqJD7AjwrC5-17" value="Compone" style="shape=rhombus;perimeter=rhombusPerimeter;whiteSpace=wrap;html=1;align=center;" vertex="1" parent="1">
          <mxGeometry x="781.9200000000001" y="370" width="120" height="60" as="geometry" />
        </mxCell>
        <mxCell id="W9PO5mg89UqJD7AjwrC5-19" style="rounded=0;orthogonalLoop=1;jettySize=auto;html=1;entryX=0.5;entryY=0;entryDx=0;entryDy=0;endArrow=none;endFill=0;" edge="1" parent="1" source="W9PO5mg89UqJD7AjwrC5-17" target="W9PO5mg89UqJD7AjwrC5-15">
          <mxGeometry relative="1" as="geometry" />
        </mxCell>
        <mxCell id="AJlxaB4Acg89Z14qFCdw-17" value="(1, n)" style="edgeLabel;html=1;align=center;verticalAlign=middle;resizable=0;points=[];" connectable="0" vertex="1" parent="W9PO5mg89UqJD7AjwrC5-19">
          <mxGeometry x="0.3" y="-1" relative="1" as="geometry">
            <mxPoint as="offset" />
          </mxGeometry>
        </mxCell>
        <mxCell id="W9PO5mg89UqJD7AjwrC5-22" style="rounded=0;orthogonalLoop=1;jettySize=auto;html=1;entryX=1;entryY=1;entryDx=0;entryDy=0;endArrow=none;endFill=0;" edge="1" parent="1" target="W9PO5mg89UqJD7AjwrC5-17">
          <mxGeometry relative="1" as="geometry">
            <mxPoint x="911.9200000000001" y="430" as="sourcePoint" />
          </mxGeometry>
        </mxCell>
        <mxCell id="W9PO5mg89UqJD7AjwrC5-21" value="" style="shape=waypoint;sketch=0;fillStyle=solid;size=6;pointerEvents=1;points=[];fillColor=none;resizable=0;rotatable=0;perimeter=centerPerimeter;snapToPoint=1;" vertex="1" parent="1">
          <mxGeometry x="901.9200000000001" y="420" width="20" height="20" as="geometry" />
        </mxCell>
        <mxCell id="W9PO5mg89UqJD7AjwrC5-24" value="Quantità" style="text;html=1;align=center;verticalAlign=middle;whiteSpace=wrap;rounded=0;" vertex="1" parent="1">
          <mxGeometry x="911.9200000000001" y="415" width="60" height="30" as="geometry" />
        </mxCell>
        <mxCell id="W9PO5mg89UqJD7AjwrC5-26" value="Utente" style="swimlane;childLayout=stackLayout;horizontal=1;startSize=50;horizontalStack=0;rounded=1;fontSize=14;fontStyle=0;strokeWidth=2;resizeParent=0;resizeLast=1;shadow=0;dashed=0;align=center;arcSize=4;whiteSpace=wrap;html=1;" vertex="1" parent="1">
          <mxGeometry x="761.9200000000001" y="750" width="160" height="140" as="geometry" />
        </mxCell>
        <mxCell id="W9PO5mg89UqJD7AjwrC5-27" value="&lt;u&gt;+email&lt;br&gt;&lt;/u&gt;&lt;div&gt;&lt;u&gt;+ password&lt;/u&gt;&lt;/div&gt;&lt;div&gt;+ nome&lt;/div&gt;&lt;div&gt;+ cognome&lt;/div&gt;" style="align=left;strokeColor=none;fillColor=none;spacingLeft=4;fontSize=12;verticalAlign=top;resizable=0;rotatable=0;part=1;html=1;" vertex="1" parent="W9PO5mg89UqJD7AjwrC5-26">
          <mxGeometry y="50" width="160" height="90" as="geometry" />
        </mxCell>
        <mxCell id="W9PO5mg89UqJD7AjwrC5-30" style="rounded=0;orthogonalLoop=1;jettySize=auto;html=1;endArrow=none;endFill=0;exitX=1;exitY=0.5;exitDx=0;exitDy=0;entryX=0;entryY=0.25;entryDx=0;entryDy=0;" edge="1" parent="1" source="W9PO5mg89UqJD7AjwrC5-28" target="W9PO5mg89UqJD7AjwrC5-27">
          <mxGeometry relative="1" as="geometry">
            <mxPoint x="699.9969230769229" y="826.538461538461" as="sourcePoint" />
            <mxPoint x="760" y="830" as="targetPoint" />
          </mxGeometry>
        </mxCell>
        <mxCell id="AJlxaB4Acg89Z14qFCdw-9" value="(0, n)" style="edgeLabel;html=1;align=center;verticalAlign=middle;resizable=0;points=[];" connectable="0" vertex="1" parent="W9PO5mg89UqJD7AjwrC5-30">
          <mxGeometry x="0.46" y="1" relative="1" as="geometry">
            <mxPoint as="offset" />
          </mxGeometry>
        </mxCell>
        <mxCell id="W9PO5mg89UqJD7AjwrC5-28" value="Scrive" style="shape=rhombus;perimeter=rhombusPerimeter;whiteSpace=wrap;html=1;align=center;" vertex="1" parent="1">
          <mxGeometry x="425" y="795" width="120" height="70" as="geometry" />
        </mxCell>
        <mxCell id="W9PO5mg89UqJD7AjwrC5-29" style="rounded=0;orthogonalLoop=1;jettySize=auto;html=1;entryX=1;entryY=0.126;entryDx=0;entryDy=0;entryPerimeter=0;endArrow=none;endFill=0;" edge="1" parent="1" source="W9PO5mg89UqJD7AjwrC5-28" target="W9PO5mg89UqJD7AjwrC5-12">
          <mxGeometry relative="1" as="geometry" />
        </mxCell>
        <mxCell id="AJlxaB4Acg89Z14qFCdw-10" value="(1, 1)" style="edgeLabel;html=1;align=center;verticalAlign=middle;resizable=0;points=[];" connectable="0" vertex="1" parent="W9PO5mg89UqJD7AjwrC5-29">
          <mxGeometry x="0.7817" relative="1" as="geometry">
            <mxPoint as="offset" />
          </mxGeometry>
        </mxCell>
        <mxCell id="W9PO5mg89UqJD7AjwrC5-31" value="Metodi di Pagamento" style="swimlane;childLayout=stackLayout;horizontal=1;startSize=50;horizontalStack=0;rounded=1;fontSize=14;fontStyle=0;strokeWidth=2;resizeParent=0;resizeLast=1;shadow=0;dashed=0;align=center;arcSize=4;whiteSpace=wrap;html=1;" vertex="1" parent="1">
          <mxGeometry x="1250" y="750" width="160" height="140" as="geometry" />
        </mxCell>
        <mxCell id="W9PO5mg89UqJD7AjwrC5-32" value="+ &lt;u&gt;Numero_carta&lt;/u&gt;&lt;br&gt;&lt;div&gt;+ &lt;u&gt;CVV&lt;/u&gt;&lt;/div&gt;&lt;div&gt;+ Data_di_scadenza&lt;/div&gt;&lt;div&gt;+ Nome_titolare&lt;/div&gt;&lt;div&gt;+ Cognome_titolare&lt;/div&gt;" style="align=left;strokeColor=none;fillColor=none;spacingLeft=4;fontSize=12;verticalAlign=top;resizable=0;rotatable=0;part=1;html=1;" vertex="1" parent="W9PO5mg89UqJD7AjwrC5-31">
          <mxGeometry y="50" width="160" height="90" as="geometry" />
        </mxCell>
        <mxCell id="W9PO5mg89UqJD7AjwrC5-34" style="rounded=0;orthogonalLoop=1;jettySize=auto;html=1;entryX=1;entryY=0.25;entryDx=0;entryDy=0;endArrow=none;endFill=0;" edge="1" parent="1" source="W9PO5mg89UqJD7AjwrC5-33" target="W9PO5mg89UqJD7AjwrC5-27">
          <mxGeometry relative="1" as="geometry" />
        </mxCell>
        <mxCell id="AJlxaB4Acg89Z14qFCdw-31" value="(0, n)" style="edgeLabel;html=1;align=center;verticalAlign=middle;resizable=0;points=[];" connectable="0" vertex="1" parent="W9PO5mg89UqJD7AjwrC5-34">
          <mxGeometry x="0.6306" y="3" relative="1" as="geometry">
            <mxPoint as="offset" />
          </mxGeometry>
        </mxCell>
        <mxCell id="W9PO5mg89UqJD7AjwrC5-35" style="rounded=0;orthogonalLoop=1;jettySize=auto;html=1;entryX=0;entryY=0.25;entryDx=0;entryDy=0;endArrow=none;endFill=0;" edge="1" parent="1" source="W9PO5mg89UqJD7AjwrC5-33" target="W9PO5mg89UqJD7AjwrC5-32">
          <mxGeometry relative="1" as="geometry" />
        </mxCell>
        <mxCell id="AJlxaB4Acg89Z14qFCdw-32" value="(1, n)" style="edgeLabel;html=1;align=center;verticalAlign=middle;resizable=0;points=[];" connectable="0" vertex="1" parent="W9PO5mg89UqJD7AjwrC5-35">
          <mxGeometry x="0.4095" relative="1" as="geometry">
            <mxPoint as="offset" />
          </mxGeometry>
        </mxCell>
        <mxCell id="W9PO5mg89UqJD7AjwrC5-33" value="è associato" style="shape=rhombus;perimeter=rhombusPerimeter;whiteSpace=wrap;html=1;align=center;" vertex="1" parent="1">
          <mxGeometry x="1041.88" y="790" width="120" height="60" as="geometry" />
        </mxCell>
        <mxCell id="W9PO5mg89UqJD7AjwrC5-38" style="rounded=0;orthogonalLoop=1;jettySize=auto;html=1;endArrow=none;endFill=0;" edge="1" parent="1" source="W9PO5mg89UqJD7AjwrC5-36" target="W9PO5mg89UqJD7AjwrC5-26">
          <mxGeometry relative="1" as="geometry" />
        </mxCell>
        <mxCell id="AJlxaB4Acg89Z14qFCdw-25" value="(0, n)" style="edgeLabel;html=1;align=center;verticalAlign=middle;resizable=0;points=[];" connectable="0" vertex="1" parent="W9PO5mg89UqJD7AjwrC5-38">
          <mxGeometry x="-0.1867" relative="1" as="geometry">
            <mxPoint as="offset" />
          </mxGeometry>
        </mxCell>
        <mxCell id="W9PO5mg89UqJD7AjwrC5-36" value="effettua" style="shape=rhombus;perimeter=rhombusPerimeter;whiteSpace=wrap;html=1;align=center;" vertex="1" parent="1">
          <mxGeometry x="781.9200000000001" y="660" width="120" height="60" as="geometry" />
        </mxCell>
        <mxCell id="W9PO5mg89UqJD7AjwrC5-37" value="" style="edgeStyle=none;orthogonalLoop=1;jettySize=auto;html=1;rounded=0;exitX=0.5;exitY=0;exitDx=0;exitDy=0;entryX=0.5;entryY=1;entryDx=0;entryDy=0;endArrow=none;endFill=0;" edge="1" parent="1" source="W9PO5mg89UqJD7AjwrC5-36" target="W9PO5mg89UqJD7AjwrC5-16">
          <mxGeometry width="100" relative="1" as="geometry">
            <mxPoint x="741.9200000000001" y="630" as="sourcePoint" />
            <mxPoint x="841.9200000000001" y="630" as="targetPoint" />
            <Array as="points" />
          </mxGeometry>
        </mxCell>
        <mxCell id="AJlxaB4Acg89Z14qFCdw-26" value="(1, 1)" style="edgeLabel;html=1;align=center;verticalAlign=middle;resizable=0;points=[];" connectable="0" vertex="1" parent="W9PO5mg89UqJD7AjwrC5-37">
          <mxGeometry x="0.432" y="2" relative="1" as="geometry">
            <mxPoint as="offset" />
          </mxGeometry>
        </mxCell>
        <mxCell id="W9PO5mg89UqJD7AjwrC5-41" style="rounded=0;orthogonalLoop=1;jettySize=auto;html=1;entryX=0.5;entryY=0;entryDx=0;entryDy=0;endArrow=none;endFill=0;" edge="1" parent="1" source="W9PO5mg89UqJD7AjwrC5-40" target="W9PO5mg89UqJD7AjwrC5-31">
          <mxGeometry relative="1" as="geometry" />
        </mxCell>
        <mxCell id="AJlxaB4Acg89Z14qFCdw-36" value="(1, n)" style="edgeLabel;html=1;align=center;verticalAlign=middle;resizable=0;points=[];" connectable="0" vertex="1" parent="W9PO5mg89UqJD7AjwrC5-41">
          <mxGeometry x="0.6969" y="2" relative="1" as="geometry">
            <mxPoint as="offset" />
          </mxGeometry>
        </mxCell>
        <mxCell id="W9PO5mg89UqJD7AjwrC5-42" style="rounded=0;orthogonalLoop=1;jettySize=auto;html=1;entryX=1;entryY=0.25;entryDx=0;entryDy=0;endArrow=none;endFill=0;" edge="1" parent="1" source="W9PO5mg89UqJD7AjwrC5-40" target="W9PO5mg89UqJD7AjwrC5-16">
          <mxGeometry relative="1" as="geometry" />
        </mxCell>
        <mxCell id="AJlxaB4Acg89Z14qFCdw-35" value="(1, 1)" style="edgeLabel;html=1;align=center;verticalAlign=middle;resizable=0;points=[];" connectable="0" vertex="1" parent="W9PO5mg89UqJD7AjwrC5-42">
          <mxGeometry x="0.8223" relative="1" as="geometry">
            <mxPoint as="offset" />
          </mxGeometry>
        </mxCell>
        <mxCell id="W9PO5mg89UqJD7AjwrC5-40" value="&lt;font style=&quot;font-size: 16px;&quot;&gt;usa&lt;/font&gt;" style="shape=rhombus;perimeter=rhombusPerimeter;whiteSpace=wrap;html=1;align=center;" vertex="1" parent="1">
          <mxGeometry x="1220" y="560" width="120" height="60" as="geometry" />
        </mxCell>
        <mxCell id="W9PO5mg89UqJD7AjwrC5-45" value="Categoria" style="swimlane;childLayout=stackLayout;horizontal=1;startSize=50;horizontalStack=0;rounded=1;fontSize=14;fontStyle=0;strokeWidth=2;resizeParent=0;resizeLast=1;shadow=0;dashed=0;align=center;arcSize=4;whiteSpace=wrap;html=1;" vertex="1" parent="1">
          <mxGeometry x="510" y="90" width="160" height="120" as="geometry" />
        </mxCell>
        <mxCell id="W9PO5mg89UqJD7AjwrC5-46" value="&lt;u&gt;+ nome&lt;/u&gt;" style="align=left;strokeColor=none;fillColor=none;spacingLeft=4;fontSize=12;verticalAlign=top;resizable=0;rotatable=0;part=1;html=1;" vertex="1" parent="W9PO5mg89UqJD7AjwrC5-45">
          <mxGeometry y="50" width="160" height="70" as="geometry" />
        </mxCell>
        <mxCell id="W9PO5mg89UqJD7AjwrC5-48" style="rounded=0;orthogonalLoop=1;jettySize=auto;html=1;entryX=1;entryY=0.25;entryDx=0;entryDy=0;endArrow=none;endFill=0;" edge="1" parent="1" source="W9PO5mg89UqJD7AjwrC5-47" target="W9PO5mg89UqJD7AjwrC5-2">
          <mxGeometry relative="1" as="geometry" />
        </mxCell>
        <mxCell id="AJlxaB4Acg89Z14qFCdw-1" value="(1, 1)" style="edgeLabel;html=1;align=center;verticalAlign=middle;resizable=0;points=[];" connectable="0" vertex="1" parent="W9PO5mg89UqJD7AjwrC5-48">
          <mxGeometry x="0.5809" y="2" relative="1" as="geometry">
            <mxPoint as="offset" />
          </mxGeometry>
        </mxCell>
        <mxCell id="W9PO5mg89UqJD7AjwrC5-49" style="rounded=0;orthogonalLoop=1;jettySize=auto;html=1;entryX=0;entryY=0.5;entryDx=0;entryDy=0;endArrow=none;endFill=0;" edge="1" parent="1" source="W9PO5mg89UqJD7AjwrC5-47" target="W9PO5mg89UqJD7AjwrC5-45">
          <mxGeometry relative="1" as="geometry" />
        </mxCell>
        <mxCell id="AJlxaB4Acg89Z14qFCdw-2" value="(0, n)" style="edgeLabel;html=1;align=center;verticalAlign=middle;resizable=0;points=[];" connectable="0" vertex="1" parent="W9PO5mg89UqJD7AjwrC5-49">
          <mxGeometry x="0.4204" y="1" relative="1" as="geometry">
            <mxPoint as="offset" />
          </mxGeometry>
        </mxCell>
        <mxCell id="W9PO5mg89UqJD7AjwrC5-47" value="appartiene" style="shape=rhombus;perimeter=rhombusPerimeter;whiteSpace=wrap;html=1;align=center;" vertex="1" parent="1">
          <mxGeometry x="305" y="130" width="120" height="60" as="geometry" />
        </mxCell>
        <mxCell id="W9PO5mg89UqJD7AjwrC5-51" style="rounded=0;orthogonalLoop=1;jettySize=auto;html=1;entryX=0;entryY=0;entryDx=0;entryDy=0;endArrow=none;endFill=0;" edge="1" parent="1" source="W9PO5mg89UqJD7AjwrC5-50" target="W9PO5mg89UqJD7AjwrC5-27">
          <mxGeometry relative="1" as="geometry">
            <mxPoint x="711.9200000000001" y="460" as="targetPoint" />
          </mxGeometry>
        </mxCell>
        <mxCell id="AJlxaB4Acg89Z14qFCdw-13" value="(1, 1)" style="edgeLabel;html=1;align=center;verticalAlign=middle;resizable=0;points=[];" connectable="0" vertex="1" parent="W9PO5mg89UqJD7AjwrC5-51">
          <mxGeometry x="0.1858" y="1" relative="1" as="geometry">
            <mxPoint as="offset" />
          </mxGeometry>
        </mxCell>
        <mxCell id="W9PO5mg89UqJD7AjwrC5-52" style="rounded=0;orthogonalLoop=1;jettySize=auto;html=1;endArrow=none;endFill=0;entryX=1;entryY=0.5;entryDx=0;entryDy=0;" edge="1" parent="1" source="W9PO5mg89UqJD7AjwrC5-50" target="W9PO5mg89UqJD7AjwrC5-9">
          <mxGeometry relative="1" as="geometry">
            <mxPoint x="600" y="685" as="targetPoint" />
          </mxGeometry>
        </mxCell>
        <mxCell id="AJlxaB4Acg89Z14qFCdw-14" value="(1, 1)" style="edgeLabel;html=1;align=center;verticalAlign=middle;resizable=0;points=[];" connectable="0" vertex="1" parent="W9PO5mg89UqJD7AjwrC5-52">
          <mxGeometry x="0.6048" relative="1" as="geometry">
            <mxPoint as="offset" />
          </mxGeometry>
        </mxCell>
        <mxCell id="W9PO5mg89UqJD7AjwrC5-50" value="possiede" style="shape=rhombus;perimeter=rhombusPerimeter;whiteSpace=wrap;html=1;align=center;" vertex="1" parent="1">
          <mxGeometry x="620" y="665" width="120" height="60" as="geometry" />
        </mxCell>
        <mxCell id="W9PO5mg89UqJD7AjwrC5-56" style="rounded=0;orthogonalLoop=1;jettySize=auto;html=1;entryX=1;entryY=0.25;entryDx=0;entryDy=0;endArrow=none;endFill=0;" edge="1" parent="1" source="W9PO5mg89UqJD7AjwrC5-55" target="W9PO5mg89UqJD7AjwrC5-9">
          <mxGeometry relative="1" as="geometry" />
        </mxCell>
        <mxCell id="AJlxaB4Acg89Z14qFCdw-15" value="(0, n)" style="edgeLabel;html=1;align=center;verticalAlign=middle;resizable=0;points=[];" connectable="0" vertex="1" parent="W9PO5mg89UqJD7AjwrC5-56">
          <mxGeometry x="0.5573" relative="1" as="geometry">
            <mxPoint as="offset" />
          </mxGeometry>
        </mxCell>
        <mxCell id="W9PO5mg89UqJD7AjwrC5-57" style="rounded=0;orthogonalLoop=1;jettySize=auto;html=1;entryX=0;entryY=1;entryDx=0;entryDy=0;endArrow=none;endFill=0;" edge="1" parent="1" source="W9PO5mg89UqJD7AjwrC5-55" target="W9PO5mg89UqJD7AjwrC5-5">
          <mxGeometry relative="1" as="geometry" />
        </mxCell>
        <mxCell id="AJlxaB4Acg89Z14qFCdw-16" value="(0, n)" style="edgeLabel;html=1;align=center;verticalAlign=middle;resizable=0;points=[];" connectable="0" vertex="1" parent="W9PO5mg89UqJD7AjwrC5-57">
          <mxGeometry x="0.6046" relative="1" as="geometry">
            <mxPoint as="offset" />
          </mxGeometry>
        </mxCell>
        <mxCell id="W9PO5mg89UqJD7AjwrC5-55" value="presenta" style="shape=rhombus;perimeter=rhombusPerimeter;whiteSpace=wrap;html=1;align=center;" vertex="1" parent="1">
          <mxGeometry x="650" y="375" width="120" height="60" as="geometry" />
        </mxCell>
        <mxCell id="W9PO5mg89UqJD7AjwrC5-58" value="Indirizzo" style="swimlane;childLayout=stackLayout;horizontal=1;startSize=50;horizontalStack=0;rounded=1;fontSize=14;fontStyle=0;strokeWidth=2;resizeParent=0;resizeLast=1;shadow=0;dashed=0;align=center;arcSize=4;whiteSpace=wrap;html=1;" vertex="1" parent="1">
          <mxGeometry x="1370" y="445" width="160" height="150" as="geometry" />
        </mxCell>
        <mxCell id="W9PO5mg89UqJD7AjwrC5-59" value="+ Nome&lt;div&gt;+ Cognome&lt;/div&gt;&lt;div&gt;+ &lt;u&gt;Via&lt;/u&gt;&lt;/div&gt;&lt;div&gt;+ &lt;u&gt;Civico&lt;/u&gt;&lt;/div&gt;&lt;div&gt;+ &lt;u&gt;Città&lt;/u&gt;&lt;/div&gt;&lt;div&gt;+ Provincia&lt;/div&gt;" style="align=left;strokeColor=none;fillColor=none;spacingLeft=4;fontSize=12;verticalAlign=top;resizable=0;rotatable=0;part=1;html=1;" vertex="1" parent="W9PO5mg89UqJD7AjwrC5-58">
          <mxGeometry y="50" width="160" height="100" as="geometry" />
        </mxCell>
        <mxCell id="W9PO5mg89UqJD7AjwrC5-61" style="rounded=0;orthogonalLoop=1;jettySize=auto;html=1;entryX=1;entryY=0.25;entryDx=0;entryDy=0;endArrow=none;endFill=0;" edge="1" parent="1" source="W9PO5mg89UqJD7AjwrC5-60" target="W9PO5mg89UqJD7AjwrC5-15">
          <mxGeometry relative="1" as="geometry" />
        </mxCell>
        <mxCell id="AJlxaB4Acg89Z14qFCdw-23" value="(1, 1)" style="edgeLabel;html=1;align=center;verticalAlign=middle;resizable=0;points=[];" connectable="0" vertex="1" parent="W9PO5mg89UqJD7AjwrC5-61">
          <mxGeometry x="0.7056" y="1" relative="1" as="geometry">
            <mxPoint as="offset" />
          </mxGeometry>
        </mxCell>
        <mxCell id="W9PO5mg89UqJD7AjwrC5-62" style="rounded=0;orthogonalLoop=1;jettySize=auto;html=1;entryX=0;entryY=0.25;entryDx=0;entryDy=0;endArrow=none;endFill=0;" edge="1" parent="1" source="W9PO5mg89UqJD7AjwrC5-60" target="W9PO5mg89UqJD7AjwrC5-59">
          <mxGeometry relative="1" as="geometry" />
        </mxCell>
        <mxCell id="AJlxaB4Acg89Z14qFCdw-24" value="(1, n)" style="edgeLabel;html=1;align=center;verticalAlign=middle;resizable=0;points=[];" connectable="0" vertex="1" parent="W9PO5mg89UqJD7AjwrC5-62">
          <mxGeometry x="0.5923" relative="1" as="geometry">
            <mxPoint as="offset" />
          </mxGeometry>
        </mxCell>
        <mxCell id="W9PO5mg89UqJD7AjwrC5-60" value="spedito" style="shape=rhombus;perimeter=rhombusPerimeter;whiteSpace=wrap;html=1;align=center;" vertex="1" parent="1">
          <mxGeometry x="1095" y="490" width="120" height="60" as="geometry" />
        </mxCell>
        <mxCell id="W9PO5mg89UqJD7AjwrC5-64" style="rounded=0;orthogonalLoop=1;jettySize=auto;html=1;entryX=0;entryY=1;entryDx=0;entryDy=0;endArrow=none;endFill=0;exitX=1.06;exitY=0.35;exitDx=0;exitDy=0;exitPerimeter=0;" edge="1" parent="1" source="W9PO5mg89UqJD7AjwrC5-65" target="W9PO5mg89UqJD7AjwrC5-55">
          <mxGeometry relative="1" as="geometry">
            <mxPoint x="560" y="405" as="sourcePoint" />
            <mxPoint x="520.0799999999999" y="390" as="targetPoint" />
          </mxGeometry>
        </mxCell>
        <mxCell id="W9PO5mg89UqJD7AjwrC5-65" value="" style="shape=waypoint;sketch=0;fillStyle=solid;size=6;pointerEvents=1;points=[];fillColor=none;resizable=0;rotatable=0;perimeter=centerPerimeter;snapToPoint=1;" vertex="1" parent="1">
          <mxGeometry x="600" y="430" width="20" height="20" as="geometry" />
        </mxCell>
        <mxCell id="W9PO5mg89UqJD7AjwrC5-66" value="Quantità" style="text;html=1;align=center;verticalAlign=middle;whiteSpace=wrap;rounded=0;" vertex="1" parent="1">
          <mxGeometry x="580" y="435" width="60" height="30" as="geometry" />
        </mxCell>
        <mxCell id="W9PO5mg89UqJD7AjwrC5-69" value="" style="rounded=0;orthogonalLoop=1;jettySize=auto;html=1;endArrow=none;endFill=0;exitX=0;exitY=0;exitDx=0;exitDy=0;entryX=0.96;entryY=0.72;entryDx=0;entryDy=0;entryPerimeter=0;" edge="1" parent="1" source="W9PO5mg89UqJD7AjwrC5-55" target="W9PO5mg89UqJD7AjwrC5-68">
          <mxGeometry relative="1" as="geometry">
            <mxPoint x="550" y="330" as="sourcePoint" />
            <mxPoint x="630" y="375" as="targetPoint" />
          </mxGeometry>
        </mxCell>
        <mxCell id="W9PO5mg89UqJD7AjwrC5-68" value="" style="shape=waypoint;sketch=0;fillStyle=solid;size=6;pointerEvents=1;points=[];fillColor=none;resizable=0;rotatable=0;perimeter=centerPerimeter;snapToPoint=1;" vertex="1" parent="1">
          <mxGeometry x="610" y="365" width="20" height="20" as="geometry" />
        </mxCell>
        <mxCell id="W9PO5mg89UqJD7AjwrC5-70" value="is_regalo" style="text;html=1;align=center;verticalAlign=middle;whiteSpace=wrap;rounded=0;" vertex="1" parent="1">
          <mxGeometry x="560" y="365" width="60" height="30" as="geometry" />
        </mxCell>
        <mxCell id="W9PO5mg89UqJD7AjwrC5-71" style="rounded=0;orthogonalLoop=1;jettySize=auto;html=1;entryX=1;entryY=0;entryDx=0;entryDy=0;endArrow=none;endFill=0;" edge="1" parent="1" target="W9PO5mg89UqJD7AjwrC5-17">
          <mxGeometry relative="1" as="geometry">
            <mxPoint x="931.8800000000001" y="375" as="sourcePoint" />
            <mxPoint x="891.96" y="360" as="targetPoint" />
          </mxGeometry>
        </mxCell>
        <mxCell id="W9PO5mg89UqJD7AjwrC5-72" value="" style="shape=waypoint;sketch=0;fillStyle=solid;size=6;pointerEvents=1;points=[];fillColor=none;resizable=0;rotatable=0;perimeter=centerPerimeter;snapToPoint=1;" vertex="1" parent="1">
          <mxGeometry x="921.8800000000001" y="365" width="20" height="20" as="geometry" />
        </mxCell>
        <mxCell id="W9PO5mg89UqJD7AjwrC5-73" value="is_regalo" style="text;html=1;align=center;verticalAlign=middle;whiteSpace=wrap;rounded=0;" vertex="1" parent="1">
          <mxGeometry x="931.8800000000001" y="360" width="60" height="30" as="geometry" />
        </mxCell>
        <mxCell id="W9PO5mg89UqJD7AjwrC5-76" style="rounded=0;orthogonalLoop=1;jettySize=auto;html=1;entryX=0.5;entryY=1;entryDx=0;entryDy=0;endArrow=none;endFill=0;" edge="1" parent="1" source="W9PO5mg89UqJD7AjwrC5-74" target="W9PO5mg89UqJD7AjwrC5-59">
          <mxGeometry relative="1" as="geometry" />
        </mxCell>
        <mxCell id="AJlxaB4Acg89Z14qFCdw-38" value="(1, n)" style="edgeLabel;html=1;align=center;verticalAlign=middle;resizable=0;points=[];" connectable="0" vertex="1" parent="W9PO5mg89UqJD7AjwrC5-76">
          <mxGeometry x="0.8675" y="-1" relative="1" as="geometry">
            <mxPoint as="offset" />
          </mxGeometry>
        </mxCell>
        <mxCell id="W9PO5mg89UqJD7AjwrC5-77" style="edgeStyle=orthogonalEdgeStyle;rounded=0;orthogonalLoop=1;jettySize=auto;html=1;entryX=0.5;entryY=1;entryDx=0;entryDy=0;endArrow=none;endFill=0;" edge="1" parent="1" source="W9PO5mg89UqJD7AjwrC5-74" target="W9PO5mg89UqJD7AjwrC5-27">
          <mxGeometry relative="1" as="geometry" />
        </mxCell>
        <mxCell id="AJlxaB4Acg89Z14qFCdw-37" value="(0, n)" style="edgeLabel;html=1;align=center;verticalAlign=middle;resizable=0;points=[];" connectable="0" vertex="1" parent="W9PO5mg89UqJD7AjwrC5-77">
          <mxGeometry x="0.912" relative="1" as="geometry">
            <mxPoint as="offset" />
          </mxGeometry>
        </mxCell>
        <mxCell id="W9PO5mg89UqJD7AjwrC5-74" value="ha" style="shape=rhombus;perimeter=rhombusPerimeter;whiteSpace=wrap;html=1;align=center;" vertex="1" parent="1">
          <mxGeometry x="1390" y="930" width="120" height="60" as="geometry" />
        </mxCell>
        <mxCell id="W9PO5mg89UqJD7AjwrC5-78" value="Ticket" style="swimlane;childLayout=stackLayout;horizontal=1;startSize=50;horizontalStack=0;rounded=1;fontSize=14;fontStyle=0;strokeWidth=2;resizeParent=0;resizeLast=1;shadow=0;dashed=0;align=center;arcSize=4;whiteSpace=wrap;html=1;" vertex="1" parent="1">
          <mxGeometry x="385" y="900" width="160" height="120" as="geometry" />
        </mxCell>
        <mxCell id="W9PO5mg89UqJD7AjwrC5-79" value="&lt;span style=&quot;background-color: initial;&quot;&gt;&lt;u&gt;+ Descrizione&lt;/u&gt;&lt;/span&gt;&lt;div&gt;+ Stato (ENUM)&lt;/div&gt;" style="align=left;strokeColor=none;fillColor=none;spacingLeft=4;fontSize=12;verticalAlign=top;resizable=0;rotatable=0;part=1;html=1;" vertex="1" parent="W9PO5mg89UqJD7AjwrC5-78">
          <mxGeometry y="50" width="160" height="70" as="geometry" />
        </mxCell>
        <mxCell id="W9PO5mg89UqJD7AjwrC5-81" style="rounded=0;orthogonalLoop=1;jettySize=auto;html=1;entryX=1;entryY=0.25;entryDx=0;entryDy=0;endArrow=none;endFill=0;" edge="1" parent="1" source="W9PO5mg89UqJD7AjwrC5-80" target="W9PO5mg89UqJD7AjwrC5-78">
          <mxGeometry relative="1" as="geometry" />
        </mxCell>
        <mxCell id="AJlxaB4Acg89Z14qFCdw-12" value="(1, 1)" style="edgeLabel;html=1;align=center;verticalAlign=middle;resizable=0;points=[];" connectable="0" vertex="1" parent="W9PO5mg89UqJD7AjwrC5-81">
          <mxGeometry x="0.5055" y="-1" relative="1" as="geometry">
            <mxPoint as="offset" />
          </mxGeometry>
        </mxCell>
        <mxCell id="W9PO5mg89UqJD7AjwrC5-82" style="rounded=0;orthogonalLoop=1;jettySize=auto;html=1;entryX=0;entryY=0.75;entryDx=0;entryDy=0;endArrow=none;endFill=0;" edge="1" parent="1" source="W9PO5mg89UqJD7AjwrC5-80" target="W9PO5mg89UqJD7AjwrC5-26">
          <mxGeometry relative="1" as="geometry" />
        </mxCell>
        <mxCell id="AJlxaB4Acg89Z14qFCdw-11" value="(0, n)" style="edgeLabel;html=1;align=center;verticalAlign=middle;resizable=0;points=[];" connectable="0" vertex="1" parent="W9PO5mg89UqJD7AjwrC5-82">
          <mxGeometry x="0.2292" relative="1" as="geometry">
            <mxPoint as="offset" />
          </mxGeometry>
        </mxCell>
        <mxCell id="W9PO5mg89UqJD7AjwrC5-80" value="apre" style="shape=rhombus;perimeter=rhombusPerimeter;whiteSpace=wrap;html=1;align=center;" vertex="1" parent="1">
          <mxGeometry x="590" y="860" width="120" height="60" as="geometry" />
        </mxCell>
        <mxCell id="W9PO5mg89UqJD7AjwrC5-84" style="rounded=0;orthogonalLoop=1;jettySize=auto;html=1;entryX=0;entryY=0.25;entryDx=0;entryDy=0;endArrow=none;endFill=0;" edge="1" parent="1" source="W9PO5mg89UqJD7AjwrC5-83" target="W9PO5mg89UqJD7AjwrC5-27">
          <mxGeometry relative="1" as="geometry" />
        </mxCell>
        <mxCell id="AJlxaB4Acg89Z14qFCdw-7" value="(0, n)" style="edgeLabel;html=1;align=center;verticalAlign=middle;resizable=0;points=[];" connectable="0" vertex="1" parent="W9PO5mg89UqJD7AjwrC5-84">
          <mxGeometry x="0.6932" relative="1" as="geometry">
            <mxPoint as="offset" />
          </mxGeometry>
        </mxCell>
        <mxCell id="W9PO5mg89UqJD7AjwrC5-85" style="rounded=0;orthogonalLoop=1;jettySize=auto;html=1;entryX=0.75;entryY=1;entryDx=0;entryDy=0;endArrow=none;endFill=0;" edge="1" parent="1" source="W9PO5mg89UqJD7AjwrC5-83" target="W9PO5mg89UqJD7AjwrC5-3">
          <mxGeometry relative="1" as="geometry" />
        </mxCell>
        <mxCell id="AJlxaB4Acg89Z14qFCdw-8" value="(0, n)" style="edgeLabel;html=1;align=center;verticalAlign=middle;resizable=0;points=[];" connectable="0" vertex="1" parent="W9PO5mg89UqJD7AjwrC5-85">
          <mxGeometry x="0.7916" relative="1" as="geometry">
            <mxPoint as="offset" />
          </mxGeometry>
        </mxCell>
        <mxCell id="W9PO5mg89UqJD7AjwrC5-83" value="Preferiti" style="shape=rhombus;perimeter=rhombusPerimeter;whiteSpace=wrap;html=1;align=center;" vertex="1" parent="1">
          <mxGeometry x="290" y="600" width="120" height="60" as="geometry" />
        </mxCell>
        <mxCell id="W9PO5mg89UqJD7AjwrC5-86" value="Reso" style="swimlane;childLayout=stackLayout;horizontal=1;startSize=50;horizontalStack=0;rounded=1;fontSize=14;fontStyle=0;strokeWidth=2;resizeParent=0;resizeLast=1;shadow=0;dashed=0;align=center;arcSize=4;whiteSpace=wrap;html=1;" vertex="1" parent="1">
          <mxGeometry x="1055" y="620" width="160" height="120" as="geometry" />
        </mxCell>
        <mxCell id="W9PO5mg89UqJD7AjwrC5-87" value="&lt;u&gt;+ Codice_reso&lt;/u&gt;&lt;br&gt;+ Stato&lt;br&gt;&lt;div&gt;+ Motivazione&lt;/div&gt;&lt;div&gt;+ Data&lt;/div&gt;" style="align=left;strokeColor=none;fillColor=none;spacingLeft=4;fontSize=12;verticalAlign=top;resizable=0;rotatable=0;part=1;html=1;" vertex="1" parent="W9PO5mg89UqJD7AjwrC5-86">
          <mxGeometry y="50" width="160" height="70" as="geometry" />
        </mxCell>
        <mxCell id="W9PO5mg89UqJD7AjwrC5-89" style="rounded=0;orthogonalLoop=1;jettySize=auto;html=1;entryX=1;entryY=0.75;entryDx=0;entryDy=0;endArrow=none;endFill=0;" edge="1" parent="1" source="W9PO5mg89UqJD7AjwrC5-88" target="W9PO5mg89UqJD7AjwrC5-16">
          <mxGeometry relative="1" as="geometry" />
        </mxCell>
        <mxCell id="AJlxaB4Acg89Z14qFCdw-27" value="(0, 1)" style="edgeLabel;html=1;align=center;verticalAlign=middle;resizable=0;points=[];" connectable="0" vertex="1" parent="W9PO5mg89UqJD7AjwrC5-89">
          <mxGeometry x="-0.0975" y="1" relative="1" as="geometry">
            <mxPoint y="1" as="offset" />
          </mxGeometry>
        </mxCell>
        <mxCell id="W9PO5mg89UqJD7AjwrC5-90" style="rounded=0;orthogonalLoop=1;jettySize=auto;html=1;entryX=0;entryY=0.5;entryDx=0;entryDy=0;endArrow=none;endFill=0;" edge="1" parent="1" source="W9PO5mg89UqJD7AjwrC5-88" target="W9PO5mg89UqJD7AjwrC5-86">
          <mxGeometry relative="1" as="geometry" />
        </mxCell>
        <mxCell id="AJlxaB4Acg89Z14qFCdw-28" value="(1, 1)" style="edgeLabel;html=1;align=center;verticalAlign=middle;resizable=0;points=[];" connectable="0" vertex="1" parent="W9PO5mg89UqJD7AjwrC5-90">
          <mxGeometry x="0.3444" relative="1" as="geometry">
            <mxPoint as="offset" />
          </mxGeometry>
        </mxCell>
        <mxCell id="W9PO5mg89UqJD7AjwrC5-88" value="è relativo" style="shape=rhombus;perimeter=rhombusPerimeter;whiteSpace=wrap;html=1;align=center;" vertex="1" parent="1">
          <mxGeometry x="921.88" y="600" width="120" height="60" as="geometry" />
        </mxCell>
        <mxCell id="W9PO5mg89UqJD7AjwrC5-93" style="rounded=0;orthogonalLoop=1;jettySize=auto;html=1;entryX=0;entryY=0.5;entryDx=0;entryDy=0;endArrow=none;endFill=0;" edge="1" parent="1" source="W9PO5mg89UqJD7AjwrC5-92" target="W9PO5mg89UqJD7AjwrC5-87">
          <mxGeometry relative="1" as="geometry" />
        </mxCell>
        <mxCell id="AJlxaB4Acg89Z14qFCdw-30" value="(1, 1)" style="edgeLabel;html=1;align=center;verticalAlign=middle;resizable=0;points=[];" connectable="0" vertex="1" parent="W9PO5mg89UqJD7AjwrC5-93">
          <mxGeometry x="0.1975" y="-1" relative="1" as="geometry">
            <mxPoint y="-1" as="offset" />
          </mxGeometry>
        </mxCell>
        <mxCell id="W9PO5mg89UqJD7AjwrC5-94" style="rounded=0;orthogonalLoop=1;jettySize=auto;html=1;entryX=1;entryY=0;entryDx=0;entryDy=0;endArrow=none;endFill=0;" edge="1" parent="1" source="W9PO5mg89UqJD7AjwrC5-92" target="W9PO5mg89UqJD7AjwrC5-27">
          <mxGeometry relative="1" as="geometry" />
        </mxCell>
        <mxCell id="AJlxaB4Acg89Z14qFCdw-29" value="(0, n)" style="edgeLabel;html=1;align=center;verticalAlign=middle;resizable=0;points=[];" connectable="0" vertex="1" parent="W9PO5mg89UqJD7AjwrC5-94">
          <mxGeometry x="0.1772" y="1" relative="1" as="geometry">
            <mxPoint as="offset" />
          </mxGeometry>
        </mxCell>
        <mxCell id="W9PO5mg89UqJD7AjwrC5-92" value="richiede" style="shape=rhombus;perimeter=rhombusPerimeter;whiteSpace=wrap;html=1;align=center;" vertex="1" parent="1">
          <mxGeometry x="931.88" y="725" width="120" height="60" as="geometry" />
        </mxCell>
        <mxCell id="W9PO5mg89UqJD7AjwrC5-96" value="Promozione" style="swimlane;childLayout=stackLayout;horizontal=1;startSize=50;horizontalStack=0;rounded=1;fontSize=14;fontStyle=0;strokeWidth=2;resizeParent=0;resizeLast=1;shadow=0;dashed=0;align=center;arcSize=4;whiteSpace=wrap;html=1;" vertex="1" parent="1">
          <mxGeometry x="1260" y="170" width="160" height="120" as="geometry" />
        </mxCell>
        <mxCell id="W9PO5mg89UqJD7AjwrC5-97" value="+ &lt;u&gt;Prezzo_promozione&lt;/u&gt;&lt;div&gt;&lt;br&gt;&lt;/div&gt;" style="align=left;strokeColor=none;fillColor=none;spacingLeft=4;fontSize=12;verticalAlign=top;resizable=0;rotatable=0;part=1;html=1;" vertex="1" parent="W9PO5mg89UqJD7AjwrC5-96">
          <mxGeometry y="50" width="160" height="70" as="geometry" />
        </mxCell>
        <mxCell id="W9PO5mg89UqJD7AjwrC5-99" style="rounded=0;orthogonalLoop=1;jettySize=auto;html=1;entryX=1;entryY=0.25;entryDx=0;entryDy=0;endArrow=none;endFill=0;" edge="1" parent="1" source="W9PO5mg89UqJD7AjwrC5-98" target="W9PO5mg89UqJD7AjwrC5-5">
          <mxGeometry relative="1" as="geometry" />
        </mxCell>
        <mxCell id="AJlxaB4Acg89Z14qFCdw-21" value="(1, 1)" style="edgeLabel;html=1;align=center;verticalAlign=middle;resizable=0;points=[];" connectable="0" vertex="1" parent="W9PO5mg89UqJD7AjwrC5-99">
          <mxGeometry x="0.5985" y="2" relative="1" as="geometry">
            <mxPoint as="offset" />
          </mxGeometry>
        </mxCell>
        <mxCell id="W9PO5mg89UqJD7AjwrC5-100" style="rounded=0;orthogonalLoop=1;jettySize=auto;html=1;entryX=0;entryY=0.25;entryDx=0;entryDy=0;endArrow=none;endFill=0;exitX=1;exitY=0.5;exitDx=0;exitDy=0;" edge="1" parent="1" source="W9PO5mg89UqJD7AjwrC5-98" target="W9PO5mg89UqJD7AjwrC5-97">
          <mxGeometry relative="1" as="geometry" />
        </mxCell>
        <mxCell id="AJlxaB4Acg89Z14qFCdw-22" value="(1, 1)" style="edgeLabel;html=1;align=center;verticalAlign=middle;resizable=0;points=[];" connectable="0" vertex="1" parent="W9PO5mg89UqJD7AjwrC5-100">
          <mxGeometry x="0.5197" relative="1" as="geometry">
            <mxPoint as="offset" />
          </mxGeometry>
        </mxCell>
        <mxCell id="W9PO5mg89UqJD7AjwrC5-98" value="sconti" style="shape=rhombus;perimeter=rhombusPerimeter;whiteSpace=wrap;html=1;align=center;" vertex="1" parent="1">
          <mxGeometry x="1041.88" y="210" width="120" height="60" as="geometry" />
        </mxCell>
        <mxCell id="W9PO5mg89UqJD7AjwrC5-101" value="Richieste Produzione" style="swimlane;childLayout=stackLayout;horizontal=1;startSize=50;horizontalStack=0;rounded=1;fontSize=14;fontStyle=0;strokeWidth=2;resizeParent=0;resizeLast=1;shadow=0;dashed=0;align=center;arcSize=4;whiteSpace=wrap;html=1;" vertex="1" parent="1">
          <mxGeometry x="800" y="1100" width="160" height="120" as="geometry" />
        </mxCell>
        <mxCell id="W9PO5mg89UqJD7AjwrC5-102" value="&lt;u&gt;+ numero_richiesta&lt;/u&gt;&lt;div&gt;+ quantita&lt;/div&gt;" style="align=left;strokeColor=none;fillColor=none;spacingLeft=4;fontSize=12;verticalAlign=top;resizable=0;rotatable=0;part=1;html=1;" vertex="1" parent="W9PO5mg89UqJD7AjwrC5-101">
          <mxGeometry y="50" width="160" height="70" as="geometry" />
        </mxCell>
        <mxCell id="W9PO5mg89UqJD7AjwrC5-104" style="edgeStyle=orthogonalEdgeStyle;rounded=0;orthogonalLoop=1;jettySize=auto;html=1;entryX=0.5;entryY=0;entryDx=0;entryDy=0;endArrow=none;endFill=0;exitX=0.5;exitY=0;exitDx=0;exitDy=0;" edge="1" parent="1" source="W9PO5mg89UqJD7AjwrC5-103" target="W9PO5mg89UqJD7AjwrC5-4">
          <mxGeometry relative="1" as="geometry">
            <mxPoint x="1590" y="93.5999755859375" as="targetPoint" />
            <Array as="points">
              <mxPoint x="1590" y="50" />
              <mxPoint x="850" y="50" />
              <mxPoint x="850" y="170" />
            </Array>
          </mxGeometry>
        </mxCell>
        <mxCell id="AJlxaB4Acg89Z14qFCdw-40" value="(0, n)" style="edgeLabel;html=1;align=center;verticalAlign=middle;resizable=0;points=[];" connectable="0" vertex="1" parent="W9PO5mg89UqJD7AjwrC5-104">
          <mxGeometry x="0.9594" y="3" relative="1" as="geometry">
            <mxPoint as="offset" />
          </mxGeometry>
        </mxCell>
        <mxCell id="W9PO5mg89UqJD7AjwrC5-103" value="include" style="shape=rhombus;perimeter=rhombusPerimeter;whiteSpace=wrap;html=1;align=center;" vertex="1" parent="1">
          <mxGeometry x="1530" y="1130" width="120" height="60" as="geometry" />
        </mxCell>
        <mxCell id="W9PO5mg89UqJD7AjwrC5-105" value="Amministratore" style="swimlane;childLayout=stackLayout;horizontal=1;startSize=50;horizontalStack=0;rounded=1;fontSize=14;fontStyle=0;strokeWidth=2;resizeParent=0;resizeLast=1;shadow=0;dashed=0;align=center;arcSize=4;whiteSpace=wrap;html=1;" vertex="1" parent="1">
          <mxGeometry x="385" y="1100" width="160" height="120" as="geometry" />
        </mxCell>
        <mxCell id="W9PO5mg89UqJD7AjwrC5-106" value="&lt;u&gt;+ username&lt;/u&gt;&lt;div&gt;&lt;u&gt;+ password&lt;/u&gt;&lt;/div&gt;" style="align=left;strokeColor=none;fillColor=none;spacingLeft=4;fontSize=12;verticalAlign=top;resizable=0;rotatable=0;part=1;html=1;" vertex="1" parent="W9PO5mg89UqJD7AjwrC5-105">
          <mxGeometry y="50" width="160" height="70" as="geometry" />
        </mxCell>
        <mxCell id="W9PO5mg89UqJD7AjwrC5-108" value="" style="endArrow=none;html=1;rounded=0;exitX=1;exitY=0.5;exitDx=0;exitDy=0;entryX=0;entryY=0.5;entryDx=0;entryDy=0;" edge="1" parent="1" source="W9PO5mg89UqJD7AjwrC5-101" target="W9PO5mg89UqJD7AjwrC5-103">
          <mxGeometry relative="1" as="geometry">
            <mxPoint x="1080" y="1150" as="sourcePoint" />
            <mxPoint x="1240" y="1150" as="targetPoint" />
          </mxGeometry>
        </mxCell>
        <mxCell id="AJlxaB4Acg89Z14qFCdw-39" value="(1, n)" style="edgeLabel;html=1;align=center;verticalAlign=middle;resizable=0;points=[];" connectable="0" vertex="1" parent="W9PO5mg89UqJD7AjwrC5-108">
          <mxGeometry x="-0.8917" y="-1" relative="1" as="geometry">
            <mxPoint x="-1" as="offset" />
          </mxGeometry>
        </mxCell>
        <mxCell id="W9PO5mg89UqJD7AjwrC5-109" value="ordina" style="shape=rhombus;perimeter=rhombusPerimeter;whiteSpace=wrap;html=1;align=center;" vertex="1" parent="1">
          <mxGeometry x="610" y="1140" width="120" height="60" as="geometry" />
        </mxCell>
        <mxCell id="W9PO5mg89UqJD7AjwrC5-110" value="" style="endArrow=none;html=1;rounded=0;exitX=1;exitY=0.25;exitDx=0;exitDy=0;entryX=0;entryY=0.5;entryDx=0;entryDy=0;" edge="1" parent="1" source="W9PO5mg89UqJD7AjwrC5-106" target="W9PO5mg89UqJD7AjwrC5-109">
          <mxGeometry relative="1" as="geometry">
            <mxPoint x="440" y="1270" as="sourcePoint" />
            <mxPoint x="600" y="1270" as="targetPoint" />
          </mxGeometry>
        </mxCell>
        <mxCell id="AJlxaB4Acg89Z14qFCdw-41" value="(1, n)" style="edgeLabel;html=1;align=center;verticalAlign=middle;resizable=0;points=[];" connectable="0" vertex="1" parent="W9PO5mg89UqJD7AjwrC5-110">
          <mxGeometry x="-0.1821" relative="1" as="geometry">
            <mxPoint as="offset" />
          </mxGeometry>
        </mxCell>
        <mxCell id="W9PO5mg89UqJD7AjwrC5-111" value="" style="endArrow=none;html=1;rounded=0;entryX=0;entryY=0.25;entryDx=0;entryDy=0;exitX=1;exitY=0.5;exitDx=0;exitDy=0;" edge="1" parent="1" source="W9PO5mg89UqJD7AjwrC5-109" target="W9PO5mg89UqJD7AjwrC5-102">
          <mxGeometry relative="1" as="geometry">
            <mxPoint x="570" y="1250" as="sourcePoint" />
            <mxPoint x="730" y="1250" as="targetPoint" />
          </mxGeometry>
        </mxCell>
        <mxCell id="AJlxaB4Acg89Z14qFCdw-42" value="(1, 1)" style="edgeLabel;html=1;align=center;verticalAlign=middle;resizable=0;points=[];" connectable="0" vertex="1" parent="W9PO5mg89UqJD7AjwrC5-111">
          <mxGeometry x="0.2087" y="1" relative="1" as="geometry">
            <mxPoint as="offset" />
          </mxGeometry>
        </mxCell>
        <mxCell id="AJlxaB4Acg89Z14qFCdw-20" value="Da rivedere la molteplicità" style="rounded=1;whiteSpace=wrap;html=1;fillColor=#fff2cc;strokeColor=#d6b656;" vertex="1" parent="1">
          <mxGeometry x="872.88" y="310" width="78.08" height="40" as="geometry" />
        </mxCell>
        <mxCell id="AJlxaB4Acg89Z14qFCdw-33" value="&lt;font style=&quot;font-size: 10px;&quot;&gt;Una carta di credito può essere associata a più di 1 persona&lt;/font&gt;" style="rounded=1;whiteSpace=wrap;html=1;fillColor=#fff2cc;strokeColor=#d6b656;" vertex="1" parent="1">
          <mxGeometry x="1130" y="860" width="110" height="50" as="geometry" />
        </mxCell>
        <mxCell id="AJlxaB4Acg89Z14qFCdw-43" value="STATO" style="swimlane;fontStyle=0;childLayout=stackLayout;horizontal=1;startSize=26;horizontalStack=0;resizeParent=1;resizeParentMax=0;resizeLast=0;collapsible=1;marginBottom=0;align=center;fontSize=14;" vertex="1" parent="1">
          <mxGeometry x="40" y="1150" width="160" height="86" as="geometry" />
        </mxCell>
        <mxCell id="AJlxaB4Acg89Z14qFCdw-45" value="Chiuso" style="text;strokeColor=none;fillColor=none;spacingLeft=4;spacingRight=4;overflow=hidden;rotatable=0;points=[[0,0.5],[1,0.5]];portConstraint=eastwest;fontSize=12;whiteSpace=wrap;html=1;" vertex="1" parent="AJlxaB4Acg89Z14qFCdw-43">
          <mxGeometry y="26" width="160" height="30" as="geometry" />
        </mxCell>
        <mxCell id="AJlxaB4Acg89Z14qFCdw-44" value="In revisione" style="text;strokeColor=none;fillColor=none;spacingLeft=4;spacingRight=4;overflow=hidden;rotatable=0;points=[[0,0.5],[1,0.5]];portConstraint=eastwest;fontSize=12;whiteSpace=wrap;html=1;" vertex="1" parent="AJlxaB4Acg89Z14qFCdw-43">
          <mxGeometry y="56" width="160" height="30" as="geometry" />
        </mxCell>
        <mxCell id="AJlxaB4Acg89Z14qFCdw-52" value="Problema" style="swimlane;childLayout=stackLayout;horizontal=1;startSize=50;horizontalStack=0;rounded=1;fontSize=14;fontStyle=0;strokeWidth=2;resizeParent=0;resizeLast=1;shadow=0;dashed=0;align=center;arcSize=4;whiteSpace=wrap;html=1;" vertex="1" parent="1">
          <mxGeometry x="50" y="970" width="160" height="120" as="geometry" />
        </mxCell>
        <mxCell id="AJlxaB4Acg89Z14qFCdw-53" value="&lt;u&gt;+ Nome&lt;/u&gt;" style="align=left;strokeColor=none;fillColor=none;spacingLeft=4;fontSize=12;verticalAlign=top;resizable=0;rotatable=0;part=1;html=1;" vertex="1" parent="AJlxaB4Acg89Z14qFCdw-52">
          <mxGeometry y="50" width="160" height="70" as="geometry" />
        </mxCell>
        <mxCell id="AJlxaB4Acg89Z14qFCdw-55" style="rounded=0;orthogonalLoop=1;jettySize=auto;html=1;entryX=1;entryY=0.25;entryDx=0;entryDy=0;endArrow=none;endFill=0;" edge="1" parent="1" source="AJlxaB4Acg89Z14qFCdw-54" target="AJlxaB4Acg89Z14qFCdw-53">
          <mxGeometry relative="1" as="geometry" />
        </mxCell>
        <mxCell id="AJlxaB4Acg89Z14qFCdw-58" value="(0, n)" style="edgeLabel;html=1;align=center;verticalAlign=middle;resizable=0;points=[];" connectable="0" vertex="1" parent="AJlxaB4Acg89Z14qFCdw-55">
          <mxGeometry x="0.2508" y="2" relative="1" as="geometry">
            <mxPoint as="offset" />
          </mxGeometry>
        </mxCell>
        <mxCell id="AJlxaB4Acg89Z14qFCdw-54" value="caratterizza" style="shape=rhombus;perimeter=rhombusPerimeter;whiteSpace=wrap;html=1;align=center;" vertex="1" parent="1">
          <mxGeometry x="230" y="950" width="120" height="60" as="geometry" />
        </mxCell>
        <mxCell id="AJlxaB4Acg89Z14qFCdw-56" style="rounded=0;orthogonalLoop=1;jettySize=auto;html=1;entryX=0.013;entryY=0.11;entryDx=0;entryDy=0;entryPerimeter=0;endArrow=none;endFill=0;" edge="1" parent="1" source="AJlxaB4Acg89Z14qFCdw-54" target="W9PO5mg89UqJD7AjwrC5-79">
          <mxGeometry relative="1" as="geometry" />
        </mxCell>
        <mxCell id="AJlxaB4Acg89Z14qFCdw-57" value="(1, 1)" style="edgeLabel;html=1;align=center;verticalAlign=middle;resizable=0;points=[];" connectable="0" vertex="1" parent="AJlxaB4Acg89Z14qFCdw-56">
          <mxGeometry x="0.2579" y="1" relative="1" as="geometry">
            <mxPoint as="offset" />
          </mxGeometry>
        </mxCell>
      </root>
    </mxGraphModel>
  </diagram>
</mxfile>
